<svg width="138" height="19" viewBox="0 0 138 19" fill="none" xmlns="http://www.w3.org/2000/svg">
<path d="M7.408 18H0.0640001V1.224H6.592C7.728 1.224 8.704 1.36 9.52 1.632C10.352 1.904 10.976 2.272 11.392 2.736C12.144 3.6 12.52 4.576 12.52 5.664C12.52 6.976 12.096 7.952 11.248 8.592C10.96 8.816 10.76 8.96 10.648 9.024C10.536 9.072 10.336 9.16 10.048 9.288C11.088 9.512 11.912 9.984 12.52 10.704C13.144 11.408 13.456 12.288 13.456 13.344C13.456 14.512 13.056 15.544 12.256 16.44C11.328 17.48 9.712 18 7.408 18ZM3.808 8.016H5.584C6.624 8.016 7.392 7.904 7.888 7.68C8.4 7.456 8.656 6.976 8.656 6.24C8.656 5.488 8.424 4.992 7.96 4.752C7.496 4.512 6.712 4.392 5.608 4.392H3.808V8.016ZM3.808 14.832H6.376C7.448 14.832 8.248 14.704 8.776 14.448C9.32 14.176 9.592 13.656 9.592 12.888C9.592 12.104 9.304 11.592 8.728 11.352C8.168 11.096 7.264 10.968 6.016 10.968H3.808V14.832ZM23.1429 8.256C22.0709 8.256 21.2709 8.64 20.7429 9.408C20.2149 10.16 19.9509 11.16 19.9509 12.408V18H16.3509V5.088H19.9509V6.792C20.4149 6.264 20.9909 5.816 21.6789 5.448C22.3829 5.08 23.0949 4.888 23.8149 4.872L23.8389 8.256H23.1429ZM37.1689 18H33.7849V16.44C32.8569 17.608 31.7049 18.192 30.3289 18.192C28.9689 18.192 27.8249 17.8 26.8969 17.016C25.9689 16.216 25.5049 15.16 25.5049 13.848C25.5049 12.52 25.9849 11.528 26.9449 10.872C27.9049 10.216 29.2169 9.888 30.8809 9.888H33.5689V9.816C33.5689 8.44 32.8409 7.752 31.3849 7.752C30.7609 7.752 30.0969 7.88 29.3929 8.136C28.7049 8.376 28.1209 8.68 27.6409 9.048L26.0329 6.72C27.7289 5.488 29.6649 4.872 31.8409 4.872C33.4089 4.872 34.6889 5.264 35.6809 6.048C36.6729 6.832 37.1689 8.072 37.1689 9.768V18ZM33.5449 13.08V12.456H31.2889C29.8489 12.456 29.1289 12.904 29.1289 13.8C29.1289 14.264 29.2969 14.624 29.6329 14.88C29.9849 15.12 30.4809 15.24 31.1209 15.24C31.7609 15.24 32.3209 15.048 32.8009 14.664C33.2969 14.264 33.5449 13.736 33.5449 13.08ZM44.1509 10.8V18H40.5509V5.088H44.1509V6.528C45.2389 5.424 46.4629 4.872 47.8229 4.872C49.1829 4.872 50.3189 5.352 51.2309 6.312C52.1589 7.272 52.6229 8.552 52.6229 10.152V18H49.0229V10.704C49.0229 8.72 48.2949 7.728 46.8389 7.728C46.1189 7.728 45.4869 7.992 44.9429 8.52C44.4149 9.032 44.1509 9.792 44.1509 10.8ZM61.139 18.192C59.619 18.192 58.259 17.544 57.059 16.248C55.859 14.952 55.259 13.344 55.259 11.424C55.259 9.504 55.843 7.936 57.011 6.72C58.179 5.488 59.547 4.872 61.115 4.872C62.683 4.872 63.963 5.424 64.955 6.528V0.191999H68.555V18H64.955V16.296C63.947 17.56 62.675 18.192 61.139 18.192ZM58.883 11.568C58.883 12.608 59.195 13.464 59.819 14.136C60.443 14.792 61.171 15.12 62.003 15.12C62.835 15.12 63.539 14.792 64.115 14.136C64.707 13.464 65.003 12.608 65.003 11.568C65.003 10.512 64.707 9.64 64.115 8.952C63.539 8.248 62.827 7.896 61.979 7.896C61.131 7.896 60.403 8.248 59.795 8.952C59.187 9.656 58.883 10.528 58.883 11.568ZM75.6634 10.8V18H72.0634V5.088H75.6634V6.528C76.7514 5.424 77.9754 4.872 79.3354 4.872C80.6954 4.872 81.8314 5.352 82.7434 6.312C83.6714 7.272 84.1354 8.552 84.1354 10.152V18H80.5354V10.704C80.5354 8.72 79.8074 7.728 78.3514 7.728C77.6314 7.728 76.9994 7.992 76.4554 8.52C75.9274 9.032 75.6634 9.792 75.6634 10.8ZM98.4595 18H95.0755V16.44C94.1475 17.608 92.9955 18.192 91.6195 18.192C90.2595 18.192 89.1155 17.8 88.1875 17.016C87.2595 16.216 86.7955 15.16 86.7955 13.848C86.7955 12.52 87.2755 11.528 88.2355 10.872C89.1955 10.216 90.5075 9.888 92.1715 9.888H94.8595V9.816C94.8595 8.44 94.1315 7.752 92.6755 7.752C92.0515 7.752 91.3875 7.88 90.6835 8.136C89.9955 8.376 89.4115 8.68 88.9315 9.048L87.3235 6.72C89.0195 5.488 90.9555 4.872 93.1315 4.872C94.6995 4.872 95.9795 5.264 96.9715 6.048C97.9635 6.832 98.4595 8.072 98.4595 9.768V18ZM94.8355 13.08V12.456H92.5795C91.1395 12.456 90.4195 12.904 90.4195 13.8C90.4195 14.264 90.5875 14.624 90.9235 14.88C91.2755 15.12 91.7715 15.24 92.4115 15.24C93.0515 15.24 93.6115 15.048 94.0915 14.664C94.5875 14.264 94.8355 13.736 94.8355 13.08ZM113.697 11.04V18H110.073V10.944C110.073 9.92 109.913 9.168 109.593 8.688C109.289 8.208 108.785 7.968 108.081 7.968C107.393 7.968 106.777 8.232 106.233 8.76C105.705 9.272 105.441 10.032 105.441 11.04V18H101.841V5.088H105.441V6.552C106.433 5.432 107.569 4.872 108.849 4.872C109.665 4.872 110.401 5.112 111.057 5.592C111.729 6.072 112.233 6.656 112.569 7.344C113.065 6.56 113.729 5.952 114.561 5.52C115.409 5.088 116.257 4.872 117.105 4.872C118.625 4.872 119.849 5.328 120.777 6.24C121.705 7.136 122.169 8.44 122.169 10.152V18H118.545V10.944C118.545 8.96 117.817 7.968 116.361 7.968C115.641 7.968 115.017 8.232 114.489 8.76C113.961 9.272 113.697 10.032 113.697 11.04ZM136.727 16.128C135.271 17.504 133.559 18.192 131.591 18.192C129.639 18.192 128.023 17.592 126.743 16.392C125.463 15.176 124.823 13.552 124.823 11.52C124.823 9.488 125.471 7.872 126.767 6.672C128.079 5.472 129.623 4.872 131.399 4.872C133.175 4.872 134.679 5.408 135.911 6.48C137.159 7.552 137.783 9.024 137.783 10.896V12.816H128.375C128.487 13.52 128.855 14.096 129.479 14.544C130.103 14.992 130.807 15.216 131.591 15.216C132.855 15.216 133.895 14.792 134.711 13.944L136.727 16.128ZM134.135 10.248C134.055 9.48 133.767 8.888 133.271 8.472C132.775 8.056 132.167 7.848 131.447 7.848C130.743 7.848 130.095 8.064 129.503 8.496C128.911 8.928 128.567 9.512 128.471 10.248H134.135Z" fill="#252B42"/>
</svg>
